<?xml version="1.0" encoding="UTF-8" standalone="no"?>
<!-- Created with Inkscape (http://www.inkscape.org/) -->

<svg
   xmlns:dc="http://purl.org/dc/elements/1.1/"
   xmlns:cc="http://creativecommons.org/ns#"
   xmlns:rdf="http://www.w3.org/1999/02/22-rdf-syntax-ns#"
   xmlns:svg="http://www.w3.org/2000/svg"
   xmlns="http://www.w3.org/2000/svg"
   xmlns:sodipodi="http://sodipodi.sourceforge.net/DTD/sodipodi-0.dtd"
   xmlns:inkscape="http://www.inkscape.org/namespaces/inkscape"
   width="32"
   height="32"
   viewBox="0 0 32 32"
   id="svg4142"
   version="1.1"
   inkscape:version="0.91 r13725"
   sodipodi:docname="icon32x32.svg">
  <defs
     id="defs4144" />
  <sodipodi:namedview
     id="base"
     pagecolor="#ffffff"
     bordercolor="#666666"
     borderopacity="1.0"
     inkscape:pageopacity="0.0"
     inkscape:pageshadow="2"
     inkscape:zoom="1.979899"
     inkscape:cx="79.565438"
     inkscape:cy="33.881315"
     inkscape:document-units="px"
     inkscape:current-layer="layer1"
     showgrid="false"
     units="px"
     inkscape:window-width="1366"
     inkscape:window-height="695"
     inkscape:window-x="0"
     inkscape:window-y="27"
     inkscape:window-maximized="1" />
  <metadata
     id="metadata4147">
    <rdf:RDF>
      <cc:Work
         rdf:about="">
        <dc:format>image/svg+xml</dc:format>
        <dc:type
           rdf:resource="http://purl.org/dc/dcmitype/StillImage" />
        <dc:title></dc:title>
      </cc:Work>
    </rdf:RDF>
  </metadata>
  <g
     inkscape:label="Layer 1"
     inkscape:groupmode="layer"
     id="layer1"
     transform="translate(0,-1020.3622)">
    <rect
       style="fill:#4169e1;stroke:#ffffff;stroke-width:0;stroke-linejoin:round;stroke-miterlimit:4;stroke-dasharray:none"
       id="rect4702"
       width="31.999987"
       height="31.999987"
       x="9.8121636e-06"
       y="1020.3622"
       ry="5.6598606" />
    <path
       id="path3400"
       d="m 4.9570302,1045.7058 c 0,-0.036 0.4397249,-2.1361 0.9771497,-4.6688 0.537425,-2.5324 1.0620998,-5.0093 1.1659247,-5.5044 0.1038281,-0.4949 0.5529499,-2.6213 0.9980245,-4.7249 l 0.8092498,-3.8251 1.9248241,-0.02 c 1.8312,-0.02 1.924825,-0.02 1.924825,0.1187 0,0.076 -0.608875,3.0048 -1.35305,6.5076 -0.744175,3.5028 -1.6252245,7.651 -1.9579243,9.2186 -0.3326749,1.5674 -0.6201748,2.8752 -0.6388999,2.9062 -0.0475,0.079 -3.8499986,0.071 -3.8499986,0 z m 7.2749978,-0.08 c 0,-0.08 0.150936,-0.8468 0.3354,-1.7061 0.184474,-0.8596 0.773725,-3.6215 1.309425,-6.1376 1.209,-5.6788 1.209224,-5.6799 1.299424,-5.7939 0.08771,-0.1093 3.469747,-0.138 3.537498,-0.028 0.02237,0.036 -0.02473,0.3651 -0.10468,0.7308 -0.07993,0.3659 -0.121453,0.6891 -0.09227,0.7183 0.0292,0.031 0.3061,-0.15 0.615351,-0.3976 0.676424,-0.542 1.69485,-1.0607 2.51225,-1.2792 0.794824,-0.2124 2.31575,-0.2295 3.032249,-0.033 1.037049,0.2834 1.728421,0.8062 2.121347,1.6044 0.23768,0.4828 0.246444,0.533 0.244803,1.4022 -0.0015,0.8058 -0.0436,1.093 -0.395827,2.7016 -0.216772,0.99 -0.706046,3.268 -1.087271,5.0624 l -0.693148,3.2626 -1.817278,0.02 c -1.634999,0.02 -1.817272,0 -1.817272,-0.1013 0,-0.12 0.239121,-1.278 1.276523,-6.1811 0.2924,-1.3817 0.5505,-2.7149 0.5736,-2.9624 0.114026,-1.2225 -0.5169,-1.8376 -1.88545,-1.8376 -1.437824,0 -2.644499,0.7352 -3.229747,1.9676 -0.195982,0.4127 -0.351301,0.9799 -0.632175,2.3087 -0.92375,4.3697 -1.427675,6.688 -1.467975,6.7532 -0.02533,0.043 -0.79725,0.071 -1.839223,0.071 -1.719051,0 -1.795576,0 -1.795576,-0.144 z"
       style="fill:#fffff0"
       inkscape:connector-curvature="0"
       sodipodi:nodetypes="cssscsssccccccsccscssccssccssscscscscc" />
  </g>
</svg>
