<?xml version="1.0" encoding="UTF-8" standalone="no"?>
<!-- Created with Inkscape (http://www.inkscape.org/) -->

<svg
   xmlns:dc="http://purl.org/dc/elements/1.1/"
   xmlns:cc="http://creativecommons.org/ns#"
   xmlns:rdf="http://www.w3.org/1999/02/22-rdf-syntax-ns#"
   xmlns:svg="http://www.w3.org/2000/svg"
   xmlns="http://www.w3.org/2000/svg"
   xmlns:sodipodi="http://sodipodi.sourceforge.net/DTD/sodipodi-0.dtd"
   xmlns:inkscape="http://www.inkscape.org/namespaces/inkscape"
   id="svg3390"
   height="77.4"
   viewBox="0 0 275.70001 77.400002"
   width="275.7"
   version="1.1"
   inkscape:version="0.91 r13725"
   sodipodi:docname="logo.svg">
  <defs
     id="defs7" />
  <sodipodi:namedview
     pagecolor="#ffffff"
     bordercolor="#666666"
     borderopacity="1"
     objecttolerance="10"
     gridtolerance="10"
     guidetolerance="10"
     inkscape:pageopacity="0"
     inkscape:pageshadow="2"
     inkscape:window-width="1366"
     inkscape:window-height="695"
     id="namedview5"
     showgrid="false"
     inkscape:zoom="1.3347841"
     inkscape:cx="59.934785"
     inkscape:cy="38.700001"
     inkscape:window-x="0"
     inkscape:window-y="27"
     inkscape:window-maximized="1"
     inkscape:current-layer="svg3390" />
  <metadata
     id="metadata3396">
    <rdf:RDF>
      <cc:Work
         rdf:about="">
        <dc:format>image/svg+xml</dc:format>
        <dc:type
           rdf:resource="http://purl.org/dc/dcmitype/StillImage" />
        <dc:title />
      </cc:Work>
    </rdf:RDF>
  </metadata>
  <path
     id="path3400"
     fill="#0000cd"
     d="m102.3 77.099c-2.2435-0.3706-5.0752-1.7455-6.7227-3.2642-2.7563-2.5406-3.7471-6.0794-3.1791-11.355 0.89096-8.2752 4.3591-13.48 11.228-16.849 3.661-1.7958 6.8578-2.7325 12.194-3.573 2.2166-0.34912 5.3126-0.83595 6.8801-1.0818 3.7686-0.59116 6.808-1.9988 8.0661-3.7356 1.9599-2.7055 1.4209-5.5306-1.3161-6.8991-1.3487-0.67437-1.8479-0.74804-4.95-0.73054-2.8764 0.01623-3.7479 0.13619-5.2417 0.7215-2.3839 0.93411-4.1815 2.6817-5.1008 4.959l-0.72664 1.8h-6.8404-6.8404l0.0946-0.9c0.15189-1.4454 1.4309-4.8608 2.5092-6.7004 1.2691-2.1652 5.3127-6.2018 7.5125-7.4995 2.2043-1.3003 5.2233-2.5134 8.0337-3.228 1.8736-0.4764 3.329-0.57122 8.7-0.56678 5.703 0.0047 6.7627 0.08424 9.15 0.68667 7.2696 1.8345 11.25 5.7796 11.25 11.15 0 1.1199-1.3289 8.0277-3.6192 18.814-1.9906 9.3742-3.6964 17.941-3.7908 19.036-0.20621 2.3947-0.0253 3.2322 0.94826 4.3892 0.65347 0.77661 0.70365 1.0037 0.43599 1.9731l-0.30249 1.0955h-7.6218-7.6218l-0.31243-1.125c-0.17184-0.61875-0.31318-1.9012-0.3141-2.85-0.0009-0.94875-0.0813-1.725-0.1786-1.725s-0.94106 0.6856-1.875 1.5236c-5.3347 4.7864-13.337 7.1085-20.448 5.9337zm15.707-11.833c5.4528-1.8827 8.8718-6.0641 10.362-12.672 0.66946-2.9692 0.77073-3.9547 0.40577-3.9485-0.12375 0.0021-1.2455 0.3298-2.4928 0.7282s-4.5452 1.2141-7.3286 1.8128c-2.7835 0.59861-5.7728 1.4252-6.6429 1.8368-2.0808 0.98437-4.1654 3.3074-4.7577 5.302-1.1287 3.8007-0.0113 6.4136 3.158 7.3843 1.3963 0.42769 5.4952 0.1787 7.2965-0.44324zm83.96 11.436c-4.5003-1.0181-9.2756-4.4053-11.596-8.2255-3.8215-6.2908-3.9912-15.904-0.4668-26.435 1.1111-3.3198 3.3181-7.872 5.1204-10.561 1.9728-2.9439 6.9254-7.7017 9.7253-9.3429 5.4847-3.2148 9.7266-4.2416 16.628-4.0251 4.1056 0.1288 4.9795 0.24996 7.2143 1.0002 6.2671 2.1039 10.117 6.2999 11.767 12.825 0.53062 2.0983 0.59524 3.039 0.45678 6.6493-0.1594 4.1564-1.4275 11.827-2.0963 12.68-0.22919 0.29242-4.1822 0.375-17.951 0.375h-17.658l-0.22229 0.825c-0.12226 0.45375-0.20985 1.9725-0.19464 3.375 0.0566 5.2255 2.1762 7.9938 6.6752 8.7183 4.2024 0.67677 7.9629-0.68102 10.905-3.9375l1.8749-2.075 7.125-0.003c6.6872-0.0027 7.125 0.03059 7.125 0.54226 0 1.201-3.1815 5.8838-5.85 8.6105-4.1575 4.2481-8.8632 7.0473-14.231 8.4651-3.6014 0.95128-11.259 1.2393-14.352 0.53972zm23.75-35.435c0.31923-0.83189 0.19561-4.9606-0.18685-6.2407-0.90817-3.0394-4.3188-4.898-8.4572-4.6087-3.1561 0.22065-5.3133 1.1633-7.371 3.221-1.8102 1.8102-4.2028 6.0159-4.2028 7.3876v0.71526h10.018c8.8583 0 10.039-0.05493 10.2-0.47454zm-63.418 34.341c-0.9075-0.14478-2.5223-0.70275-3.5884-1.2399-1.5431-0.7775-2.1243-1.2781-2.85-2.4547-0.87188-1.4136-0.91031-1.6163-0.88195-4.65 0.0267-2.8519 0.3823-4.8189 3.525-19.496 1.9224-8.978 3.4954-16.572 3.4954-16.875 0-0.50436-0.30536-0.55136-3.5823-0.55136-1.9703 0-3.6566-0.12021-3.7474-0.26713-0.21457-0.34719 1.6146-9.3695 1.9968-9.8491 0.19522-0.24497 1.5488-0.39399 4.0874-0.45l3.7955-0.08374 1.3866-6.6514c0.76261-3.6583 1.4739-6.9995 1.5807-7.425l0.19415-0.77356h7.1766c3.997 0 7.2515 0.12117 7.3456 0.27349 0.093 0.15042-0.49647 3.4196-1.3099 7.2649-0.81339 3.8453-1.4135 7.0972-1.3336 7.2265 0.0799 0.12928 2.0315 0.23505 4.337 0.23505 3.169 0 4.2283 0.09544 4.3418 0.39116 0.1974 0.51441-1.621 9.2396-2.0278 9.7297-0.22678 0.27326-1.5162 0.37913-4.6174 0.37913-3.7945 0-4.3348 0.06201-4.5739 0.525-0.56976 1.1029-6.7119 31.287-6.5212 32.047 0.29132 1.1607 1.7613 1.6281 5.1211 1.6281 2.2278 0 2.9063 0.0971 3.0358 0.43443 0.24466 0.63757-1.9077 10.431-2.3548 10.715-0.50484 0.32042-11.926 0.2532-14.031-0.08258zm-162.3-0.523c0-0.142 1.7589-8.545 3.9086-18.675s4.2484-20.038 4.6637-22.018c0.41531-1.98 2.2118-10.485 3.9921-18.9l3.237-15.3 7.6993-0.08007c7.3248-0.07617 7.6993-0.05302 7.6993 0.47589 0 0.30578-2.4355 12.019-5.4122 26.03s-6.5009 30.604-7.8317 36.874c-1.3307 6.27-2.4807 11.501-2.5556 11.625-0.19 0.314-15.4 0.283-15.4-0.032zm29.1-0.31767c0-0.316 0.60374-3.3872 1.3416-6.825 0.7379-3.4378 3.0949-14.485 5.2377-24.55 4.836-22.715 4.8369-22.719 5.1977-23.175 0.35083-0.4438 13.879-0.55067 14.15-0.11179 0.08947 0.14477-0.09894 1.4604-0.4187 2.9236-0.31975 1.4632-0.48582 2.7559-0.36905 2.8727 0.11678 0.11678 1.2244-0.59881 2.4614-1.5902 2.7057-2.1685 6.7794-4.2428 10.049-5.1169 3.1793-0.84998 9.263-0.91769 12.129-0.135 4.1482 1.133 6.9137 3.2244 8.4854 6.4171 0.95072 1.9312 0.98578 2.132 0.97921 5.6092-0.0061 3.223-0.17439 4.3716-1.5833 10.806-0.86709 3.96-2.8242 13.072-4.3491 20.25l-2.7726 13.05-7.2691 0.08033c-6.54 0.07228-7.2691 0.03149-7.2691-0.40669 0-0.48126 0.95649-5.1126 5.1061-24.724 1.1696-5.5275 2.202-10.86 2.2944-11.85 0.45605-4.8905-2.0676-7.35-7.5418-7.35-5.7513 0-10.578 2.9402-12.919 7.8702-0.78393 1.6507-1.4052 3.9195-2.5287 9.2341-3.695 17.479-5.7107 26.752-5.8719 27.013-0.10131 0.16393-3.189 0.28249-7.3569 0.28249-6.8762 0-7.1823-0.02449-7.1823-0.57454zm215.57 0.307c-0.091-0.1473 0.7038-4.366 1.7663-9.375 1.8662-8.7978 6.7085-31.603 11.393-53.657 1.2442-5.8575 2.3334-10.95 2.4203-11.317l0.15811-0.66746 7.3462 0.01271c5.664 0.0098 7.3462 0.09844 7.3462 0.38712 0 0.20592-2.4194 11.706-5.3765 25.555s-6.482 30.378-7.8331 36.73c-1.3511 6.3525-2.5815 11.786-2.7341 12.075-0.25219 0.47714-0.91756 0.525-7.2992 0.525-3.862 0-7.0962-0.12052-7.1873-0.26781z"
     style="fill:#4169e1" />
</svg>
